<?xml version="1.0" encoding="UTF-8" standalone="no"?>
<!-- Created with Inkscape (http://www.inkscape.org/) -->

<svg
   xmlns:dc="http://purl.org/dc/elements/1.1/"
   xmlns:cc="http://creativecommons.org/ns#"
   xmlns:rdf="http://www.w3.org/1999/02/22-rdf-syntax-ns#"
   xmlns:svg="http://www.w3.org/2000/svg"
   xmlns="http://www.w3.org/2000/svg"
   xmlns:sodipodi="http://sodipodi.sourceforge.net/DTD/sodipodi-0.dtd"
   xmlns:inkscape="http://www.inkscape.org/namespaces/inkscape"
   version="1.0"
   width="645"
   height="645"
   id="svg2"
   inkscape:version="0.48.2 r9819"
   sodipodi:docname="ab-roman.svg">
  <sodipodi:namedview
     pagecolor="#ffffff"
     bordercolor="#666666"
     borderopacity="1"
     objecttolerance="10"
     gridtolerance="10"
     guidetolerance="10"
     inkscape:pageopacity="0"
     inkscape:pageshadow="2"
     inkscape:window-width="1057"
     inkscape:window-height="720"
     id="namedview33"
     showgrid="false"
     inkscape:zoom="0.51744868"
     inkscape:cx="347.78071"
     inkscape:cy="450.54422"
     inkscape:window-x="0"
     inkscape:window-y="0"
     inkscape:window-maximized="0"
     inkscape:current-layer="svg2" />
  <metadata
     id="metadata3898">
    <rdf:RDF>
      <cc:Work
         rdf:about="">
        <dc:format>image/svg+xml</dc:format>
        <dc:type
           rdf:resource="http://purl.org/dc/dcmitype/StillImage" />
        <dc:title></dc:title>
      </cc:Work>
    </rdf:RDF>
  </metadata>
  <defs
     id="defs3896" />
  <path
     d="m 638.35645,324.02929 a 312.32142,312.32142 0 0 1 -624.642839,0 312.32142,312.32142 0 1 1 624.642839,0 z"
     id="path2496"
     style="fill:#008000;fill-opacity:1;fill-rule:nonzero;stroke:#000000;stroke-width:8;stroke-linecap:butt;stroke-linejoin:miter;stroke-miterlimit:4;stroke-opacity:1;stroke-dasharray:none;stroke-dashoffset:0" />
  <path
     d="m 612.19636,324.01161 a 286.16133,286.16133 0 1 0 -572.322661,0 286.16133,286.16133 0 0 0 572.322661,0 z"
     id="path2438"
     style="fill:none;fill-opacity:1;fill-rule:nonzero;stroke:#000000;stroke-width:8;stroke-linecap:butt;stroke-linejoin:miter;stroke-miterlimit:4;stroke-opacity:1;stroke-dasharray:none;stroke-dashoffset:0" />
  <text
     x="682.19324"
     y="291.34174"
     id="text3787"
     xml:space="preserve"
     style="font-size:40px;font-style:normal;font-weight:normal;line-height:125%;letter-spacing:0px;word-spacing:0px;fill:#000000;fill-opacity:1;stroke:none;font-family:Sans"><tspan
       x="682.19324"
       y="291.34174"
       id="tspan3789" /></text>
  <text
     x="836.79797"
     y="243.02777"
     id="text3791"
     xml:space="preserve"
     style="font-size:40px;font-style:normal;font-weight:normal;line-height:125%;letter-spacing:0px;word-spacing:0px;fill:#000000;fill-opacity:1;stroke:none;font-family:Sans"><tspan
       x="836.79797"
       y="243.02777"
       id="tspan3793" /></text>
  <text
     x="44.448853"
     y="-114.4956"
     id="text3795"
     xml:space="preserve"
     style="font-size:40px;font-style:normal;font-weight:normal;line-height:125%;letter-spacing:0px;word-spacing:0px;fill:#000000;fill-opacity:1;stroke:none;font-family:Sans"><tspan
       x="44.448853"
       y="-114.4956"
       id="tspan3797" /></text>
  <text
     x="216.44658"
     y="-284.56076"
     id="text3807"
     xml:space="preserve"
     style="font-size:40px;font-style:normal;font-variant:normal;font-weight:500;font-stretch:normal;line-height:125%;letter-spacing:0px;word-spacing:0px;fill:#000000;fill-opacity:1;stroke:none;font-family:Savoye LET;-inkscape-font-specification:Savoye LET Medium"><tspan
       x="216.44658"
       y="-284.56076"
       id="tspan3809" /></text>
  <path
     d="m 96.627941,561.41681 a 33.336639,33.336639 0 1 1 -66.673279,0 33.336639,33.336639 0 1 1 66.673279,0 z"
     transform="matrix(0.40452106,0,0,0.41180818,14.782011,74.728362)"
     id="path3923"
     style="fill:#ffffff;fill-opacity:1;stroke:#000000;stroke-width:8;stroke-miterlimit:4;stroke-opacity:1;stroke-dasharray:none" />
  <path
     d="m 96.627941,561.41681 a 33.336639,33.336639 0 1 1 -66.673279,0 33.336639,33.336639 0 1 1 66.673279,0 z"
     transform="matrix(0.55314395,0,0,0.51943938,287.60951,-256.054)"
     id="path3951"
     style="fill:#ffffff;fill-opacity:1;stroke:#000000;stroke-width:8;stroke-miterlimit:4;stroke-opacity:1;stroke-dasharray:none" />
  <path
     style="fill:none;stroke:none"
     d="m 286.00523,44.6683 c -92.29537,12.629713 -175.46951,74.40422 -214.928827,158.68776 -14.22881,26.88863 -22.2551,57.22156 -25.195312,87.75656 7.05181,5.09242 12.368948,14.00038 6.704515,22.24874 -2.195123,6.01862 -12.372515,6.04144 -9.150274,13.95663 1.832619,69.31545 28.070316,139.15376 76.238128,189.4055 3.54898,4.88522 7.29917,6.94262 9.47442,8.96405 6.15373,2.30618 7.79249,5.21866 10.13778,9.94291 26.53714,24.40992 61.47021,44.33372 95.44498,55.23339 77.19658,27.50862 166.93712,17.76671 236.88782,-24.41075 9.98796,-6.44618 26.93401,-18.00047 35.42225,-26.24851 -1.90229,-3.78688 -4.93411,-1.70446 -18.19186,6.87533 -7.5441,1.32388 -11.8661,-5.95552 -18.4481,10e-6 -43.62233,26.68083 -98.93583,43.8418 -150.3605,41.5082 -50.64693,0.27456 -100.67339,-16.83836 -142.41757,-44.6683 C 111.4648,499.10566 66.793202,424.14749 61.712292,343.98354 55.606989,267.97885 83.897882,190.29928 138.01272,136.7891 c 51.15261,-51.532814 123.832,-80.932436 196.67465,-77.38861 56.26017,0.664434 114.63543,24.573343 158.99539,58.42925 5.46445,4.92964 15.97743,1.37182 13.78751,8.27368 1.37494,9.72053 9.18829,13.44284 18.13713,24.02099 45.45446,51.77667 71.32777,128.15673 64.23179,199.09954 -5.34551,62.84307 -39.08363,125.78416 -83.86607,169.88489 -8.58779,6.44341 2.35445,14.59995 -4.3558,22.07793 0.5013,5.31184 6.5314,-1.9887 8.45538,-3.2455 61.6849,-52.95616 98.98029,-133.15151 97.92008,-214.7153 C 608.51,243.95566 573.07094,165.96593 513.87334,113.63513 466.9626,71.886634 405.71473,45.298162 342.71604,42.661215 c -7.00528,11.086269 -23.60655,16.341203 -33.86421,6.619108 -4.18873,-8.112377 -11.62928,-7.201126 -19.29519,-5.142805 -1.18379,0.176927 -2.3676,0.353854 -3.55141,0.530782 z"
     id="path3014"
     inkscape:connector-curvature="0"
     sodipodi:nodetypes="ccccccccccccccccccccccccccccccc" />
  <path
     d="m 587.88708,324.04706 a 261.85205,261.85205 0 1 0 -523.704092,0 261.85205,261.85205 0 0 0 523.704092,0 z"
     id="path9"
     style="fill:none;fill-opacity:1;fill-rule:nonzero;stroke:#000000;stroke-width:8;stroke-linecap:butt;stroke-linejoin:miter;stroke-miterlimit:4;stroke-opacity:1;stroke-dasharray:none;stroke-dashoffset:0" />
  <path
     d="m 556.16305,322.56043 a 229.96356,233.66701 0 1 0 -459.927115,0 229.96356,233.66701 0 0 0 459.927115,0 z"
     id="path3987"
     style="fill:none;stroke:#000000;stroke-width:6.48048067;stroke-linecap:butt;stroke-linejoin:miter;stroke-miterlimit:4;stroke-opacity:1;stroke-dasharray:none;stroke-dashoffset:0" />
  <path
     d="m 96.627941,561.41681 a 33.336639,33.336639 0 1 1 -66.673279,0 33.336639,33.336639 0 1 1 66.673279,0 z"
     transform="matrix(0.29095987,0,0,0.27323089,538.16117,173.95737)"
     id="path3989"
     style="fill:#ffffff;fill-opacity:1;stroke:#000000;stroke-width:8;stroke-miterlimit:4;stroke-opacity:1;stroke-dasharray:none" />
  <path
     d="m 96.627941,561.41681 a 33.336639,33.336639 0 1 1 -66.673279,0 33.336639,33.336639 0 1 1 66.673279,0 z"
     transform="matrix(0.39707604,0,0,0.37288112,124.09306,-35.235366)"
     id="path3991"
     style="fill:#ffffff;fill-opacity:1;stroke:#000000;stroke-width:8;stroke-miterlimit:4;stroke-opacity:1;stroke-dasharray:none" />
  <path
     d="m 96.627941,561.41681 a 33.336639,33.336639 0 1 1 -66.673279,0 33.336639,33.336639 0 1 1 66.673279,0 z"
     transform="matrix(0.29095987,0,0,0.27323089,111.16524,378.34944)"
     id="path3985"
     style="fill:#ffffff;fill-opacity:1;stroke:#000000;stroke-width:8;stroke-miterlimit:4;stroke-opacity:1;stroke-dasharray:none" />
  <path
     d="m 96.627941,561.41681 a 33.336639,33.336639 0 1 1 -66.673279,0 33.336639,33.336639 0 1 1 66.673279,0 z"
     transform="matrix(0.55314395,0,0,0.51943938,450.57284,237.12232)"
     id="path3947"
     style="fill:#ffffff;fill-opacity:1;stroke:#000000;stroke-width:8;stroke-miterlimit:4;stroke-opacity:1;stroke-dasharray:none" />
  <path
     d="m 96.627941,561.41681 a 33.336639,33.336639 0 1 1 -66.673279,0 33.336639,33.336639 0 1 1 66.673279,0 z"
     transform="matrix(0.29095987,0,0,0.27323089,480.7671,-25.55534)"
     id="path3983"
     style="fill:#ffffff;fill-opacity:1;stroke:#000000;stroke-width:8;stroke-miterlimit:4;stroke-opacity:1;stroke-dasharray:none" />
  <g
     id="g3809"
     transform="translate(-6,-4)">
    <g
       id="text3788"
       style="font-size:200px;font-style:normal;font-variant:normal;font-weight:normal;font-stretch:normal;line-height:125%;letter-spacing:0px;word-spacing:0px;fill:#000000;fill-opacity:1;stroke:none;font-family:Lido STF CE;-inkscape-font-specification:Lido STF CE">
      <path
         sodipodi:nodetypes="cccccccccscccccccccccccsccccccccccccc"
         inkscape:connector-curvature="0"
         id="path3793"
         style="font-size:320px;font-weight:bold;-inkscape-font-specification:Lido STF CE Bold"
         d="m 348.03475,294.72866 c -1.5e-4,-14.50653 0.10652,-28.90652 0.32,-43.2 2.61061,-63.81014 3.42345,-54.51359 -48,-56.64 l 0,8.96 3.2,0 c 2.98656,2.1e-4 5.33322,0.53354 7.04,1.6 1.91989,1.06688 3.41322,3.20021 4.48,6.4 l -110.4,145.92 c -6.4,8.32005 -12.05333,15.36004 -16.96,21.12 -5.11998,5.5467 -9.70665,10.13336 -13.76,13.76 -4.05331,3.62669 -7.78663,6.29335 -11.2,8 -3.41329,1.49335 -6.82662,2.24001 -10.24,2.24 l 0,8.96 68.16,0 0,-8.96 c -6.61335,10e-6 -11.84001,-1.06665 -15.68,-3.2 -3.62667,-2.13332 -4.58667,-5.75998 -2.88,-10.88 1.49333,-3.62664 3.19999,-7.03997 5.12,-10.24 2.13332,-3.41329 4.69332,-7.25329 7.68,-11.52 l 22.4,-29.44 79.36,0 0,37.76 c -1.2e-4,11.09336 -0.96012,18.45335 -2.88,22.08 -1.92011,3.62668 -5.33344,5.44001 -10.24,5.44 l -3.2,0 0,8.96 47.73589,-0.48314 c 0.29301,-6.43322 -0.32812,-6.37174 0.90411,-24.15686 -0.64015,-2.98664 -0.96015,-6.71997 -0.96,-11.2 l 0,-69.76 m -101.76,19.2 40,-53.44 c 4.47991,-5.97318 9.38657,-12.90651 14.72,-20.8 5.54656,-7.89316 10.77322,-15.35982 15.68,-22.4 l 0,0.96 0,95.68 -70.4,0" />
    </g>
    <g
       transform="translate(-6,0)"
       id="text3796"
       style="font-size:200px;font-style:normal;font-variant:normal;font-weight:normal;font-stretch:normal;line-height:125%;letter-spacing:0px;word-spacing:0px;fill:#000000;fill-opacity:1;stroke:none;font-family:Lido STF CE;-inkscape-font-specification:Lido STF CE">
      <path
         sodipodi:nodetypes="ccscccccccscccccccccccccccccccscccccccccccccccccccccsssscc"
         inkscape:connector-curvature="0"
         id="path3801"
         style="font-size:320px"
         d="m 370.24865,374.22577 0,-69.44 28.16,0 c 11.73323,1.1e-4 21.54655,1.49344 29.44,4.48 8.10654,2.77343 14.50653,6.50676 19.2,11.2 4.90652,4.69342 8.42652,10.13342 10.56,16.32 2.13318,6.18674 3.19984,12.58673 3.2,19.2 -1.6e-4,7.04005 -1.06682,13.33338 -3.2,18.88 -2.13348,5.33337 -5.65348,9.92003 -10.56,13.76 -4.69347,3.62669 -10.88013,6.40002 -18.56,8.32 -7.46678,1.92001 -16.74677,2.88001 -27.84,2.88 -6.61342,1e-5 -11.94675,-0.31999 -16,-0.96 -3.84008,-0.63999 -6.82674,-1.91998 -8.96,-3.84 -2.1334,-1.91998 -3.62673,-4.47998 -4.48,-7.68 -0.64006,-3.4133 -0.96006,-7.78663 -0.96,-13.12 m 0,-80.96 c -6e-5,-13.6532 0.1066,-27.51985 0.32,-41.6 0.4266,-14.07982 0.85327,-28.37314 1.28,-42.88 5.33326,-0.42646 10.02659,-0.74646 14.08,-0.96 4.05325,-0.42646 7.78658,-0.63979 11.2,-0.64 9.5999,2.1e-4 17.59989,1.2802 24,3.84 6.61321,2.34687 11.83987,5.54686 15.68,9.6 4.0532,3.84019 6.9332,8.42685 8.64,13.76 1.70653,5.12017 2.55986,10.4535 2.56,16 -1.4e-4,5.54682 -0.96014,10.88015 -2.88,16 -1.7068,5.12014 -4.5868,9.7068 -8.64,13.76 -3.84013,4.05346 -8.96012,7.25346 -15.36,9.6 -6.40011,2.34679 -14.0801,3.52012 -23.04,3.52 l -27.84,0 m -47.68,118.4 89.92,0 c 15.35988,0 28.26653,-1.6 38.72,-4.8 10.66651,-3.19999 19.3065,-7.35999 25.92,-12.48 6.82649,-5.33331 11.73315,-11.30664 14.72,-17.92 2.98648,-6.61329 4.47981,-13.33328 4.48,-20.16 -1.9e-4,-7.03994 -1.38686,-13.8666 -4.16,-20.48 -2.77352,-6.61325 -6.82685,-12.58658 -12.16,-17.92 -5.3335,-5.33323 -11.84016,-9.70656 -19.52,-13.12 -7.68015,-3.41322 -16.53347,-5.54655 -26.56,-6.4 l 0,-2.88 c 7.03986,-0.42655 13.43986,-2.02655 19.2,-4.8 5.97318,-2.77321 10.98651,-6.2932 15.04,-10.56 4.2665,-4.26653 7.57316,-9.06652 9.92,-14.4 2.34649,-5.54651 3.51982,-11.19984 3.52,-16.96 -1.8e-4,-7.25316 -1.38684,-14.07982 -4.16,-20.48 -2.7735,-6.61314 -7.2535,-12.37314 -13.44,-17.28 -6.18682,-5.11979 -14.29348,-9.06646 -24.32,-11.84 -9.81346,-2.98645 -21.76011,-3.45489 -35.84,-3.45511 l -80.93837,-0.68326 -0.34163,8.61837 3.2,0 c 4.90664,2.1e-4 8.31997,1.81354 10.24,5.44 1.91997,3.62687 2.87997,10.98686 2.88,22.08 l 0,144 c -3e-5,11.09336 -0.96003,18.45335 -2.88,22.08 -1.92003,3.62668 -5.33336,5.44001 -10.24,5.44 l -3.2,0 0,8.96" />
    </g>
  </g>
</svg>
