<?xml version="1.0" encoding="UTF-8" standalone="no"?>
<!-- Created with Inkscape (http://www.inkscape.org/) -->

<svg
   xmlns:dc="http://purl.org/dc/elements/1.1/"
   xmlns:cc="http://creativecommons.org/ns#"
   xmlns:rdf="http://www.w3.org/1999/02/22-rdf-syntax-ns#"
   xmlns:svg="http://www.w3.org/2000/svg"
   xmlns="http://www.w3.org/2000/svg"
   xmlns:sodipodi="http://sodipodi.sourceforge.net/DTD/sodipodi-0.dtd"
   xmlns:inkscape="http://www.inkscape.org/namespaces/inkscape"
   version="1.0"
   width="645"
   height="645"
   id="svg2"
   inkscape:version="0.48.2 r9819"
   sodipodi:docname="ab.svg">
  <metadata
     id="metadata3898">
    <rdf:RDF>
      <cc:Work
         rdf:about="">
        <dc:format>image/svg+xml</dc:format>
        <dc:type
           rdf:resource="http://purl.org/dc/dcmitype/StillImage" />
      </cc:Work>
    </rdf:RDF>
  </metadata>
  <defs
     id="defs3896" />
  <sodipodi:namedview
     pagecolor="#ffffff"
     bordercolor="#666666"
     borderopacity="1"
     objecttolerance="10"
     gridtolerance="10"
     guidetolerance="10"
     inkscape:pageopacity="0"
     inkscape:pageshadow="2"
     inkscape:window-width="1209"
     inkscape:window-height="724"
     id="namedview3894"
     showgrid="false"
     inkscape:zoom="0.51744868"
     inkscape:cx="270.38879"
     inkscape:cy="309.30588"
     inkscape:window-x="0"
     inkscape:window-y="0"
     inkscape:window-maximized="0"
     inkscape:current-layer="svg2" />
  <path
     style="fill:#008000;fill-opacity:1;fill-rule:nonzero;stroke:#000000;stroke-width:8;stroke-linecap:butt;stroke-linejoin:miter;stroke-miterlimit:4;stroke-opacity:1;stroke-dasharray:none;stroke-dashoffset:0"
     id="path2496"
     d="m 638.35645,324.02929 a 312.32142,312.32142 0 0 1 -624.642839,0 312.32142,312.32142 0 1 1 624.642839,0 z"
     inkscape:connector-curvature="0" />
  <path
     inkscape:connector-curvature="0"
     d="m 555.39485,322.55885 a 230.89486,230.89486 0 1 0 -461.789705,0 230.89486,230.89486 0 0 0 461.789705,0 z"
     id="path3799"
     style="fill:#ffffff;stroke:#000000;stroke-width:7.05420828000000011;stroke-linecap:butt;stroke-linejoin:miter;stroke-miterlimit:4;stroke-opacity:1;stroke-dasharray:none;stroke-dashoffset:0;fill-opacity:1" />
  <g
     inkscape:groupmode="layer"
     id="layer2"
     inkscape:label="Layer" />
  <path
     style="fill:none;fill-opacity:1;fill-rule:nonzero;stroke:#000000;stroke-width:8;stroke-linecap:butt;stroke-linejoin:miter;stroke-miterlimit:4;stroke-opacity:1;stroke-dasharray:none;stroke-dashoffset:0"
     id="path2438"
     d="m 612.19636,324.01161 a 286.16133,286.16133 0 1 0 -572.322661,0 286.16133,286.16133 0 0 0 572.322661,0 z"
     inkscape:connector-curvature="0" />
  <path
     style="fill:none;fill-opacity:1;fill-rule:nonzero;stroke:#000000;stroke-width:8;stroke-linecap:butt;stroke-linejoin:miter;stroke-miterlimit:4;stroke-opacity:1;stroke-dasharray:none;stroke-dashoffset:0"
     id="path9"
     d="m 587.88708,324.04706 a 261.85205,261.85205 0 1 0 -523.704092,0 261.85205,261.85205 0 0 0 523.704092,0 z"
     inkscape:connector-curvature="0" />
  <text
     xml:space="preserve"
     style="font-size:40px;font-style:normal;font-weight:normal;line-height:125%;letter-spacing:0px;word-spacing:0px;fill:#000000;fill-opacity:1;stroke:none;font-family:Sans"
     x="682.19324"
     y="291.34174"
     id="text3787"
     sodipodi:linespacing="125%"><tspan
       sodipodi:role="line"
       id="tspan3789"
       x="682.19324"
       y="291.34174" /></text>
  <text
     xml:space="preserve"
     style="font-size:40px;font-style:normal;font-weight:normal;line-height:125%;letter-spacing:0px;word-spacing:0px;fill:#000000;fill-opacity:1;stroke:none;font-family:Sans"
     x="836.79797"
     y="243.02777"
     id="text3791"
     sodipodi:linespacing="125%"><tspan
       sodipodi:role="line"
       id="tspan3793"
       x="836.79797"
       y="243.02777" /></text>
  <text
     xml:space="preserve"
     style="font-size:40px;font-style:normal;font-weight:normal;line-height:125%;letter-spacing:0px;word-spacing:0px;fill:#000000;fill-opacity:1;stroke:none;font-family:Sans"
     x="44.448853"
     y="-114.4956"
     id="text3795"
     sodipodi:linespacing="125%"><tspan
       sodipodi:role="line"
       id="tspan3797"
       x="44.448853"
       y="-114.4956" /></text>
  <text
     xml:space="preserve"
     style="font-size:40px;font-style:normal;font-variant:normal;font-weight:500;font-stretch:normal;line-height:125%;letter-spacing:0px;word-spacing:0px;fill:#000000;fill-opacity:1;stroke:none;font-family:Savoye LET;-inkscape-font-specification:Savoye LET Medium"
     x="216.44658"
     y="-284.56076"
     id="text3807"
     sodipodi:linespacing="125%"><tspan
       sodipodi:role="line"
       id="tspan3809" /></text>
  <g
     id="g3854"
     transform="matrix(1.3640692,0,0,1.195458,-129.61731,-39.077161)">
    <g
       id="text3783"
       style="font-size:307.58862305px;font-style:normal;font-variant:normal;font-weight:normal;font-stretch:normal;line-height:125%;letter-spacing:0px;word-spacing:0px;fill:#000000;fill-opacity:1;stroke:none;font-family:Didot;-inkscape-font-specification:Didot"
       transform="matrix(0.89601601,-0.02250122,0.02926686,1.1153165,0,0)">
      <path
         id="path3852"
         style="font-size:397.58078003px"
         d="m 344.64355,261.97677 -0.79516,0 c -0.53023,3.4458 -4.90361,6.89149 -13.12017,10.3371 l -29.81855,11.92743 c -8.4818,3.44577 -14.97561,8.34926 -19.48146,14.71049 -4.50597,6.09629 -6.75893,13.78284 -6.75888,23.05968 -5e-5,3.97584 0.39753,8.08417 1.19275,12.325 0.79511,4.24089 2.2529,8.08416 4.37338,11.52985 2.12038,3.18065 5.03597,5.83119 8.74678,7.95161 3.97574,2.12044 9.01176,3.18065 15.10807,3.18065 8.74669,0 15.77061,-1.85537 21.07178,-5.56613 5.56603,-3.71074 9.67436,-8.34918 12.32501,-13.91533 2.91547,-5.5661 4.77085,-11.52981 5.56613,-17.89113 1.06009,-6.6263 1.5902,-12.59001 1.59032,-17.89114 l 0,-39.75808 m 70.55537,96.08596 c -28.17528,2.28792 -52.42049,1.11356 -71.02564,0.46913 -0.77842,-6.2353 0.47149,-13.61153 0.86785,-24.593 l -0.79516,0 c -1.06033,2.38551 -2.51813,5.43363 -4.37339,9.14436 -1.85549,3.44571 -4.77108,6.89141 -8.74678,10.3371 -3.71085,3.18065 -8.74687,5.83119 -15.10807,7.95162 -6.36137,2.38548 -14.44551,3.57822 -24.25242,3.57822 -11.13232,0 -20.01162,-1.32527 -26.63791,-3.9758 -6.62639,-2.38549 -11.79493,-5.4336 -15.50566,-9.14436 -3.71077,-3.71074 -6.22878,-7.81907 -7.55403,-12.32501 -1.06023,-4.77094 -1.59034,-9.14432 -1.59032,-13.12016 -2e-5,-9.27684 1.85536,-16.69834 5.56613,-22.26452 3.71073,-5.56607 8.48169,-9.93946 14.31291,-13.12017 6.09619,-3.44563 12.72253,-6.22869 19.87903,-8.3492 7.42145,-2.12035 14.84295,-4.3733 22.26453,-6.75887 8.74669,-2.91551 15.90314,-5.43352 21.46936,-7.55403 5.83108,-2.12034 10.33699,-4.63835 13.51775,-7.55404 3.18053,-3.18054 5.30096,-7.02382 6.36129,-11.52984 1.32515,-4.77086 1.98778,-11.13214 1.9879,-19.08388 -1.2e-4,-6.36116 -0.3977,-12.05981 -1.19274,-17.09597 -0.79528,-5.03588 -2.25307,-9.27673 -4.37339,-12.72259 -2.12054,-3.71059 -5.16866,-6.49365 -9.14436,-8.34919 -3.97591,-1.85521 -9.27698,-2.7829 -15.90323,-2.78307 -8.74686,1.7e-4 -16.03583,1.59049 -21.86694,4.77097 -5.56619,2.91575 -8.34926,7.81925 -8.3492,14.71049 -6e-5,4.50606 0.39752,9.01197 1.19275,13.51774 0.7951,4.241 1.19268,7.42164 1.19274,9.54194 -6e-5,3.71088 -1.32533,6.89152 -3.97581,9.54194 -2.65059,2.3856 -6.49387,3.57834 -11.52984,3.57823 -8.74682,1.1e-4 -14.18042,-1.59021 -16.30081,-4.77097 -2.12046,-3.18052 -3.18068,-7.28885 -3.18065,-12.325 -3e-5,-5.83105 1.32524,-11.39718 3.97581,-16.6984 2.6505,-5.30092 6.49378,-9.93936 11.52984,-13.91532 5.30103,-4.2407 11.79484,-7.55387 19.48146,-9.93952 7.95154,-2.38531 16.96337,-3.57806 27.03549,-3.57823 12.19238,1.7e-4 22.39694,1.5905 30.61372,4.77097 8.21654,2.91576 14.84288,7.02409 19.87904,12.325 5.03588,5.03618 8.6141,10.86736 10.73468,17.49356 2.12028,6.36142 3.18049,13.12029 3.18065,20.27662 l 0,98.99761 c -1.6e-4,7.68658 1.19258,12.85512 3.57823,15.50565 2.38532,2.65054 17.5278,5.84074 24.92658,4.82702 23.44054,-1.5857 41.91023,-17.05916 47.07712,-7.76786"
         inkscape:connector-curvature="0"
         sodipodi:nodetypes="cccccccccsccccccccccccscscssccccccccccccccccccssccccccccccc" />
    </g>
    <g
       id="text3842"
       style="font-size:40px;font-style:normal;font-variant:normal;font-weight:500;font-stretch:normal;line-height:125%;letter-spacing:0px;word-spacing:0px;fill:#000000;fill-opacity:1;stroke:none;font-family:Savoye LET;-inkscape-font-specification:Savoye LET Medium">
      <path
         id="path3849"
         style="font-size:270px;font-weight:normal;font-family:Didot;-inkscape-font-specification:Didot"
         d="m 345.49334,286.80478 24.84,0 c 5.0399,1e-4 9.6299,-0.6299 13.77,-1.89 4.13989,-1.25989 7.64989,-3.41989 10.53,-6.48 3.05988,-3.23989 5.39988,-7.55988 7.02,-12.96 1.61988,-5.39987 2.42988,-12.23986 2.43,-20.52 -1.2e-4,-9.35985 -1.26012,-16.82984 -3.78,-22.41 -2.34012,-5.75983 -5.49011,-10.07982 -9.45,-12.96 -3.78011,-2.87982 -8.1001,-4.76982 -12.96,-5.67 -4.68009,-0.89981 -9.36009,-1.34981 -14.04,-1.35 -3.24008,1.9e-4 -6.57008,0.0902 -9.99,0.27 -3.24007,1.9e-4 -6.03007,0.18019 -8.37,0.54 l 0,83.43 m 0,101.25 c 2.15993,0.18 4.49993,0.45 7.02,0.81 16.62102,4.31348 25.05647,1.27287 33.06078,-1.07294 6.11989,-1.62 11.06988,-4.65156 14.85,-8.61157 3.95988,-4.13998 6.71909,-10.38547 8.51922,-17.04549 1.79987,-6.65997 2.69987,-15.02996 2.7,-25.11 -1.3e-4,-14.39993 -3.06013,-25.73992 -9.18,-34.02 -6.12012,-8.27991 -15.21011,-12.4199 -27.27,-12.42 l -29.7,0 0,97.47 m -30.22832,-180.64143 -20.49332,-5.22639 -6.24836,-2.59218 c 22.39341,14.56737 35.94154,3.11377 55.35,0 2.87993,-0.17981 5.75993,-0.35981 8.64,-0.54 2.87992,1.9e-4 5.66992,1.9e-4 8.37,0 2.69992,-0.17981 5.30991,-0.26981 7.83,-0.27 13.1399,1.9e-4 23.93989,1.62019 32.4,4.86 8.45987,3.06018 15.11986,6.93018 19.98,11.61 4.85985,4.50017 8.18985,9.45016 9.99,14.85 1.79985,5.22015 2.69985,9.99015 2.7,14.31 -1.5e-4,5.94014 -1.35015,11.43013 -4.05,16.47 -2.52015,5.04012 -6.03014,9.45012 -10.53,13.23 -4.32013,3.78011 -9.36013,6.84011 -15.12,9.18 -5.76012,2.3401 -11.79011,3.8701 -18.09,4.59 l 0,0.54 c 6.47989,0.5401 13.04988,1.9801 19.71,4.32 6.83987,2.16009 12.95986,5.31009 18.36,9.45 5.57985,3.96008 10.07985,8.91008 13.5,14.85 3.41984,5.94007 5.12984,12.78006 5.13,20.52 -1.6e-4,8.10004 -1.53016,15.57004 -4.59,22.41 -3.06015,6.66002 -7.65015,12.42002 -13.77,17.28 -6.12014,4.86001 -13.86013,8.73 -23.22,11.61 -9.36011,2.7 -20.2501,4.05 -32.67,4.05 -2.52009,0 -5.04008,-0.09 -7.56,-0.27 -2.34008,0 -4.86008,-0.09 -7.56,-0.27 -2.70007,-0.18 -5.49007,-0.36 -8.37,-0.54"
         inkscape:connector-curvature="0"
         sodipodi:nodetypes="ccccccccccccccccccccscccccccccccccccccccccccccscsc" />
    </g>
  </g>
  <path
     sodipodi:type="arc"
     style="fill:#ffffff;fill-opacity:1;stroke:#000000;stroke-width:8;stroke-miterlimit:4;stroke-opacity:1;stroke-dasharray:none"
     id="path3923"
     sodipodi:cx="63.291302"
     sodipodi:cy="561.41681"
     sodipodi:rx="33.336639"
     sodipodi:ry="33.336639"
     d="m 96.627941,561.41681 a 33.336639,33.336639 0 1 1 -66.673279,0 33.336639,33.336639 0 1 1 66.673279,0 z"
     transform="matrix(0.40452106,0,0,0.41180818,14.782011,74.728362)" />
  <path
     transform="matrix(0.55314395,0,0,0.51943938,450.57284,237.12232)"
     d="m 96.627941,561.41681 a 33.336639,33.336639 0 1 1 -66.673279,0 33.336639,33.336639 0 1 1 66.673279,0 z"
     sodipodi:ry="33.336639"
     sodipodi:rx="33.336639"
     sodipodi:cy="561.41681"
     sodipodi:cx="63.291302"
     id="path3947"
     style="fill:#ffffff;fill-opacity:1;stroke:#000000;stroke-width:8;stroke-miterlimit:4;stroke-opacity:1;stroke-dasharray:none"
     sodipodi:type="arc" />
  <path
     transform="matrix(0.55314395,0,0,0.51943938,287.60951,-256.054)"
     d="m 96.627941,561.41681 a 33.336639,33.336639 0 1 1 -66.673279,0 33.336639,33.336639 0 1 1 66.673279,0 z"
     sodipodi:ry="33.336639"
     sodipodi:rx="33.336639"
     sodipodi:cy="561.41681"
     sodipodi:cx="63.291302"
     id="path3951"
     style="fill:#ffffff;fill-opacity:1;stroke:#000000;stroke-width:8;stroke-miterlimit:4;stroke-opacity:1;stroke-dasharray:none"
     sodipodi:type="arc" />
  <path
     sodipodi:type="arc"
     style="fill:#ffffff;fill-opacity:1;stroke:#000000;stroke-width:8;stroke-miterlimit:4;stroke-opacity:1;stroke-dasharray:none"
     id="path3983"
     sodipodi:cx="63.291302"
     sodipodi:cy="561.41681"
     sodipodi:rx="33.336639"
     sodipodi:ry="33.336639"
     d="m 96.627941,561.41681 a 33.336639,33.336639 0 1 1 -66.673279,0 33.336639,33.336639 0 1 1 66.673279,0 z"
     transform="matrix(0.29095987,0,0,0.27323089,480.7671,-25.55534)" />
  <path
     transform="matrix(0.29095987,0,0,0.27323089,111.16524,378.34944)"
     d="m 96.627941,561.41681 a 33.336639,33.336639 0 1 1 -66.673279,0 33.336639,33.336639 0 1 1 66.673279,0 z"
     sodipodi:ry="33.336639"
     sodipodi:rx="33.336639"
     sodipodi:cy="561.41681"
     sodipodi:cx="63.291302"
     id="path3985"
     style="fill:#ffffff;fill-opacity:1;stroke:#000000;stroke-width:8;stroke-miterlimit:4;stroke-opacity:1;stroke-dasharray:none"
     sodipodi:type="arc" />
  <path
     sodipodi:type="arc"
     style="fill:#ffffff;fill-opacity:1;stroke:#000000;stroke-width:8;stroke-miterlimit:4;stroke-opacity:1;stroke-dasharray:none"
     id="path3991"
     sodipodi:cx="63.291302"
     sodipodi:cy="561.41681"
     sodipodi:rx="33.336639"
     sodipodi:ry="33.336639"
     d="m 96.627941,561.41681 a 33.336639,33.336639 0 1 1 -66.673279,0 33.336639,33.336639 0 1 1 66.673279,0 z"
     transform="matrix(0.39707604,0,0,0.37288112,124.09306,-35.235366)" />
  <path
     transform="matrix(0.29095987,0,0,0.27323089,538.16117,173.95737)"
     d="m 96.627941,561.41681 a 33.336639,33.336639 0 1 1 -66.673279,0 33.336639,33.336639 0 1 1 66.673279,0 z"
     sodipodi:ry="33.336639"
     sodipodi:rx="33.336639"
     sodipodi:cy="561.41681"
     sodipodi:cx="63.291302"
     id="path3989"
     style="fill:#ffffff;fill-opacity:1;stroke:#000000;stroke-width:8;stroke-miterlimit:4;stroke-opacity:1;stroke-dasharray:none"
     sodipodi:type="arc" />
</svg>
